<svg width="168" height="70" viewBox="0 0 168 70" fill="none" xmlns="http://www.w3.org/2000/svg">
<path d="M66.5 9.53191H20.3359L19.8906 7.74468C19.3958 5.46099 18.2826 3.59929 16.5508 2.15957C14.819 0.719858 12.7656 0 10.3906 0H3.11719C2.22656 0 1.48438 0.297872 0.890625 0.893617C0.296875 1.48936 0 2.28369 0 3.2766C0 4.17021 0.296875 4.91489 0.890625 5.51064C1.48438 6.10638 2.22656 6.40426 3.11719 6.40426H10.3906C12.2708 6.40426 13.3594 7.24823 13.6562 8.93617L20.9297 47.0638C21.5234 49.1489 22.6862 50.8369 24.418 52.1277C26.1497 53.4184 28.0547 54.0638 30.1328 54.0638H60.1172C61.1068 54.0638 61.8984 53.766 62.4922 53.1702C63.0859 52.5745 63.3828 51.8298 63.3828 50.9362C63.3828 48.7518 62.2943 47.6596 60.1172 47.6596H30.1328C28.7474 47.6596 27.7578 47.0638 27.1641 45.8723L26.8672 44.5319H58.6328C60.612 44.5319 62.418 43.9362 64.0508 42.7447C65.6836 41.5532 66.7969 40.0142 67.3906 38.1277L76 19.8085V19.0638C76 16.383 75.0846 14.1241 73.2539 12.2872C71.4232 10.4504 69.1719 9.53191 66.5 9.53191ZM28.5 38.1277H25.6797L21.5234 15.9362H28.5V38.1277ZM41.1172 38.1277H34.8828V15.9362H41.1172V38.1277ZM53.8828 38.1277H47.5V15.9362H53.8828V38.1277ZM61.75 35.5957V35.8936C61.4531 36.8865 60.9089 37.5319 60.1172 37.8298V15.9362H66.5C68.2812 15.9362 69.3203 16.7801 69.6172 18.4681L61.75 35.5957ZM38 63.5957C38 65.383 37.3815 66.8972 36.1445 68.1383C34.9076 69.3794 33.3984 70 31.6172 70C29.9349 70 28.4753 69.3794 27.2383 68.1383C26.0013 66.8972 25.3828 65.383 25.3828 63.5957C25.3828 61.8085 26.0013 60.2943 27.2383 59.0532C28.4753 57.8121 29.9349 57.1915 31.6172 57.1915C33.3984 57.1915 34.9076 57.8121 36.1445 59.0532C37.3815 60.2943 38 61.8085 38 63.5957ZM63.3828 63.5957C63.3828 65.383 62.7643 66.8972 61.5273 68.1383C60.2904 69.3794 58.7812 70 57 70C55.2188 70 53.7096 69.3794 52.4727 68.1383C51.2357 66.8972 50.6172 65.383 50.6172 63.5957C50.6172 61.8085 51.2357 60.2943 52.4727 59.0532C53.7096 57.8121 55.2188 57.1915 57 57.1915C58.7812 57.1915 60.2904 57.8121 61.5273 59.0532C62.7643 60.2943 63.3828 61.8085 63.3828 63.5957Z" fill="white"/>
<path d="M86.224 32.528C85.808 32.016 85.6 31.56 85.6 31.16C85.6 30.744 85.944 30.2 86.632 29.528C87.032 29.144 87.456 28.952 87.904 28.952C88.352 28.952 88.976 29.352 89.776 30.152C90 30.424 90.32 30.688 90.736 30.944C91.152 31.184 91.536 31.304 91.888 31.304C93.376 31.304 94.12 30.696 94.12 29.48C94.12 29.112 93.912 28.808 93.496 28.568C93.096 28.312 92.592 28.128 91.984 28.016C91.376 27.904 90.72 27.728 90.016 27.488C89.312 27.232 88.656 26.936 88.048 26.6C87.44 26.264 86.928 25.736 86.512 25.016C86.112 24.28 85.912 23.4 85.912 22.376C85.912 20.968 86.432 19.744 87.472 18.704C88.528 17.648 89.96 17.12 91.768 17.12C92.728 17.12 93.6 17.248 94.384 17.504C95.184 17.744 95.736 17.992 96.04 18.248L96.64 18.704C97.136 19.168 97.384 19.56 97.384 19.88C97.384 20.2 97.192 20.64 96.808 21.2C96.264 22 95.704 22.4 95.128 22.4C94.792 22.4 94.376 22.24 93.88 21.92C93.832 21.888 93.736 21.808 93.592 21.68C93.464 21.552 93.344 21.448 93.232 21.368C92.896 21.16 92.464 21.056 91.936 21.056C91.424 21.056 90.992 21.184 90.64 21.44C90.304 21.68 90.136 22.024 90.136 22.472C90.136 22.904 90.336 23.256 90.736 23.528C91.152 23.8 91.664 23.984 92.272 24.08C92.88 24.176 93.544 24.328 94.264 24.536C94.984 24.728 95.648 24.968 96.256 25.256C96.864 25.544 97.368 26.048 97.768 26.768C98.184 27.472 98.392 28.344 98.392 29.384C98.392 30.424 98.184 31.344 97.768 32.144C97.352 32.928 96.808 33.536 96.136 33.968C94.84 34.816 93.456 35.24 91.984 35.24C91.232 35.24 90.52 35.152 89.848 34.976C89.176 34.784 88.632 34.552 88.216 34.28C87.368 33.768 86.776 33.272 86.44 32.792L86.224 32.528ZM99.9522 24.464C99.9522 24.096 99.9602 23.824 99.9762 23.648C100.008 23.456 100.08 23.24 100.192 23C100.416 22.584 101.04 22.376 102.064 22.376C102.832 22.376 103.376 22.512 103.696 22.784C103.968 23.008 104.112 23.352 104.128 23.816C104.144 23.976 104.152 24.208 104.152 24.512V32.912C104.152 33.28 104.136 33.56 104.104 33.752C104.088 33.928 104.016 34.136 103.888 34.376C103.68 34.792 103.064 35 102.04 35C101.032 35 100.416 34.784 100.192 34.352C100.08 34.112 100.008 33.904 99.9762 33.728C99.9602 33.552 99.9522 33.272 99.9522 32.888V24.464ZM103.888 20.024C103.776 20.248 103.568 20.408 103.264 20.504C102.96 20.6 102.552 20.648 102.04 20.648C101.544 20.648 101.144 20.6 100.84 20.504C100.536 20.408 100.32 20.24 100.192 20C100.08 19.76 100.008 19.552 99.9762 19.376C99.9602 19.184 99.9522 18.904 99.9522 18.536C99.9522 18.168 99.9602 17.896 99.9762 17.72C100.008 17.528 100.08 17.32 100.192 17.096C100.416 16.664 101.04 16.448 102.064 16.448C103.072 16.448 103.68 16.664 103.888 17.096C104.016 17.336 104.088 17.552 104.104 17.744C104.136 17.92 104.152 18.192 104.152 18.56C104.152 18.928 104.136 19.208 104.104 19.4C104.088 19.576 104.016 19.784 103.888 20.024ZM110.197 24.032C110.949 22.896 111.853 22.328 112.909 22.328C114.541 22.328 115.757 23.024 116.557 24.416C116.733 24.176 116.941 23.928 117.181 23.672C117.437 23.4 117.837 23.112 118.381 22.808C118.925 22.488 119.485 22.328 120.061 22.328C121.341 22.328 122.413 22.824 123.277 23.816C124.141 24.792 124.573 26.416 124.573 28.688V32.888C124.573 33.256 124.557 33.536 124.525 33.728C124.509 33.904 124.437 34.112 124.309 34.352C124.101 34.784 123.485 35 122.461 35C121.453 35 120.837 34.776 120.613 34.328C120.501 34.088 120.429 33.88 120.397 33.704C120.381 33.512 120.373 33.232 120.373 32.864V28.664C120.373 27.272 119.877 26.576 118.885 26.576C118.325 26.576 117.941 26.76 117.733 27.128C117.541 27.496 117.445 28.016 117.445 28.688V32.888C117.445 33.272 117.429 33.552 117.397 33.728C117.381 33.904 117.309 34.112 117.181 34.352C116.957 34.784 116.333 35 115.309 35C114.301 35 113.685 34.776 113.461 34.328C113.349 34.088 113.277 33.88 113.245 33.704C113.229 33.512 113.221 33.232 113.221 32.864V28.664C113.221 27.272 112.725 26.576 111.733 26.576C110.773 26.576 110.293 27.272 110.293 28.664V32.912C110.293 33.28 110.277 33.56 110.245 33.752C110.229 33.928 110.157 34.136 110.029 34.376C109.789 34.792 109.165 35 108.157 35C107.149 35 106.533 34.784 106.309 34.352C106.197 34.112 106.125 33.904 106.093 33.728C106.077 33.552 106.069 33.272 106.069 32.888V24.44C106.069 24.072 106.077 23.8 106.093 23.624C106.125 23.432 106.205 23.224 106.333 23C106.573 22.568 107.141 22.352 108.037 22.352C108.933 22.352 109.517 22.496 109.789 22.784C110.061 23.072 110.197 23.488 110.197 24.032ZM126.483 38.432V24.416C126.483 24.048 126.491 23.776 126.507 23.6C126.539 23.424 126.611 23.224 126.723 23C126.947 22.568 127.483 22.352 128.331 22.352C129.179 22.352 129.747 22.464 130.035 22.688C130.339 22.896 130.515 23.208 130.563 23.624C131.171 22.792 132.123 22.376 133.419 22.376C134.731 22.376 135.971 22.992 137.139 24.224C138.307 25.456 138.891 26.888 138.891 28.52C138.891 30.152 138.307 31.584 137.139 32.816C135.987 34.048 134.755 34.664 133.443 34.664C132.131 34.664 131.179 34.296 130.587 33.56V38.408C130.587 38.776 130.571 39.048 130.539 39.224C130.523 39.4 130.451 39.6 130.323 39.824C130.211 40.064 130.011 40.232 129.723 40.328C129.435 40.424 129.043 40.472 128.547 40.472C128.051 40.472 127.651 40.424 127.347 40.328C127.059 40.232 126.851 40.072 126.723 39.848C126.611 39.624 126.539 39.424 126.507 39.248C126.491 39.072 126.483 38.8 126.483 38.432ZM131.235 27.128C130.867 27.56 130.683 28.032 130.683 28.544C130.683 29.056 130.867 29.528 131.235 29.96C131.619 30.376 132.099 30.584 132.675 30.584C133.267 30.584 133.763 30.376 134.163 29.96C134.579 29.544 134.787 29.072 134.787 28.544C134.787 28.016 134.595 27.544 134.211 27.128C133.827 26.696 133.323 26.48 132.699 26.48C132.091 26.48 131.603 26.696 131.235 27.128ZM140.452 18.512C140.452 18.144 140.46 17.872 140.476 17.696C140.508 17.504 140.58 17.288 140.692 17.048C140.916 16.616 141.54 16.4 142.564 16.4C143.54 16.4 144.148 16.616 144.388 17.048C144.516 17.288 144.588 17.504 144.604 17.696C144.636 17.888 144.652 18.168 144.652 18.536V29.648C144.652 30.224 144.7 30.592 144.796 30.752C144.892 30.896 145.1 30.968 145.42 30.968C145.756 30.968 145.98 30.984 146.092 31.016C146.204 31.032 146.34 31.096 146.5 31.208C146.82 31.416 146.98 31.984 146.98 32.912C146.98 33.92 146.82 34.536 146.5 34.76C146.084 35.048 145.092 35.096 143.524 34.904C142.292 34.744 141.492 34.336 141.124 33.68C140.676 32.896 140.452 31.648 140.452 29.936V18.512ZM160.261 27.176C160.261 28.152 160.013 28.88 159.517 29.36C159.037 29.824 158.501 30.056 157.909 30.056H152.221C152.221 30.504 152.485 30.88 153.013 31.184C153.541 31.488 154.069 31.64 154.597 31.64C155.525 31.64 156.253 31.544 156.781 31.352L157.045 31.256C157.429 31.08 157.749 30.992 158.005 30.992C158.517 30.992 158.957 31.352 159.325 32.072C159.533 32.504 159.637 32.872 159.637 33.176C159.637 34.6 157.933 35.312 154.525 35.312C153.341 35.312 152.285 35.112 151.357 34.712C150.445 34.296 149.733 33.752 149.221 33.08C148.213 31.784 147.709 30.336 147.709 28.736C147.709 26.72 148.357 25.112 149.653 23.912C150.965 22.696 152.597 22.088 154.549 22.088C156.773 22.088 158.405 22.872 159.445 24.44C159.989 25.272 160.261 26.184 160.261 27.176ZM155.197 27.872C155.805 27.872 156.109 27.616 156.109 27.104C156.109 26.736 155.965 26.44 155.677 26.216C155.405 25.992 155.005 25.88 154.477 25.88C153.965 25.88 153.453 26.096 152.941 26.528C152.429 26.944 152.173 27.392 152.173 27.872H155.197ZM104.656 47.08C104.784 47.32 104.856 47.536 104.872 47.728C104.904 47.92 104.92 48.2 104.92 48.568V61.888C104.92 62.992 104.616 63.64 104.008 63.832C103.704 63.928 103.32 63.976 102.856 63.976C102.392 63.976 102.024 63.936 101.752 63.856C101.48 63.776 101.272 63.68 101.128 63.568C100.984 63.456 100.872 63.296 100.792 63.088C100.712 62.816 100.672 62.4 100.672 61.84V53.8C100.272 54.296 99.688 55.088 98.92 56.176C98.152 57.248 97.664 57.92 97.456 58.192C97.248 58.464 97.104 58.656 97.024 58.768C96.944 58.864 96.744 59.008 96.424 59.2C96.12 59.376 95.784 59.464 95.416 59.464C95.064 59.464 94.736 59.384 94.432 59.224C94.144 59.048 93.936 58.88 93.808 58.72L93.616 58.456C93.296 58.056 92.664 57.208 91.72 55.912C90.776 54.6 90.264 53.896 90.184 53.8V61.888C90.184 62.256 90.168 62.536 90.136 62.728C90.12 62.904 90.048 63.104 89.92 63.328C89.68 63.76 89.056 63.976 88.048 63.976C87.072 63.976 86.464 63.76 86.224 63.328C86.096 63.104 86.016 62.896 85.984 62.704C85.968 62.512 85.96 62.224 85.96 61.84V48.52C85.96 48.152 85.968 47.88 85.984 47.704C86.016 47.512 86.096 47.296 86.224 47.056C86.464 46.64 87.088 46.432 88.096 46.432C88.528 46.432 88.896 46.488 89.2 46.6C89.52 46.696 89.728 46.8 89.824 46.912L89.968 47.056L95.416 54.208C98.136 50.608 99.952 48.232 100.864 47.08C101.136 46.648 101.776 46.432 102.784 46.432C103.808 46.432 104.432 46.648 104.656 47.08ZM115.051 52.696C115.147 51.8 115.779 51.352 116.947 51.352C117.571 51.352 118.035 51.4 118.339 51.496C118.643 51.592 118.851 51.76 118.963 52C119.091 52.24 119.163 52.456 119.179 52.648C119.211 52.824 119.227 53.096 119.227 53.464V61.864C119.227 62.232 119.211 62.512 119.179 62.704C119.163 62.88 119.099 63.088 118.987 63.328C118.763 63.744 118.211 63.952 117.331 63.952C116.467 63.952 115.883 63.848 115.579 63.64C115.291 63.416 115.123 63.096 115.075 62.68C114.483 63.528 113.491 63.952 112.099 63.952C110.723 63.952 109.443 63.32 108.259 62.056C107.075 60.792 106.483 59.328 106.483 57.664C106.483 55.984 107.075 54.52 108.259 53.272C109.459 52.008 110.771 51.376 112.195 51.376C112.739 51.376 113.235 51.472 113.683 51.664C114.131 51.856 114.443 52.04 114.619 52.216C114.795 52.376 114.939 52.536 115.051 52.696ZM110.683 57.688C110.683 58.216 110.891 58.696 111.307 59.128C111.723 59.544 112.227 59.752 112.819 59.752C113.411 59.752 113.899 59.536 114.283 59.104C114.683 58.672 114.883 58.2 114.883 57.688C114.883 57.16 114.691 56.672 114.307 56.224C113.939 55.776 113.435 55.552 112.795 55.552C112.171 55.552 111.659 55.776 111.259 56.224C110.875 56.672 110.683 57.16 110.683 57.688ZM129.732 51.496C130.036 51.592 130.284 51.76 130.476 52C130.684 52.224 130.788 52.592 130.788 53.104C130.788 53.616 130.636 54.176 130.332 54.784C130.028 55.392 129.588 55.696 129.012 55.696C128.724 55.696 128.444 55.632 128.172 55.504C127.916 55.376 127.572 55.312 127.14 55.312C126.708 55.312 126.3 55.464 125.916 55.768C125.548 56.072 125.364 56.44 125.364 56.872V61.912C125.364 62.28 125.348 62.56 125.316 62.752C125.3 62.928 125.228 63.136 125.1 63.376C124.86 63.792 124.236 64 123.228 64C122.46 64 121.908 63.864 121.572 63.592C121.316 63.368 121.172 63.024 121.14 62.56C121.14 62.4 121.14 62.168 121.14 61.864V53.44C121.14 53.072 121.148 52.8 121.164 52.624C121.196 52.432 121.268 52.224 121.38 52C121.604 51.568 122.228 51.352 123.252 51.352C124.212 51.352 124.812 51.536 125.052 51.904C125.228 52.16 125.316 52.424 125.316 52.696C125.396 52.584 125.508 52.448 125.652 52.288C125.812 52.128 126.14 51.912 126.636 51.64C127.132 51.368 127.564 51.232 127.932 51.232C128.316 51.232 128.636 51.256 128.892 51.304C129.148 51.336 129.428 51.4 129.732 51.496ZM139.548 57.664L142.74 60.304C143.14 60.64 143.388 60.896 143.484 61.072C143.596 61.248 143.652 61.416 143.652 61.576C143.652 61.96 143.404 62.48 142.908 63.136C142.364 63.808 141.884 64.144 141.468 64.144C141.116 64.144 140.628 63.912 140.004 63.448L139.764 63.28C139.396 62.976 138.828 62.448 138.06 61.696C137.292 60.928 136.708 60.384 136.308 60.064V61.912C136.308 62.28 136.292 62.56 136.26 62.752C136.244 62.928 136.172 63.136 136.044 63.376C135.836 63.792 135.22 64 134.196 64C133.188 64 132.572 63.784 132.348 63.352C132.236 63.112 132.164 62.904 132.132 62.728C132.116 62.536 132.108 62.256 132.108 61.888V47.512C132.108 47.144 132.116 46.872 132.132 46.696C132.164 46.504 132.236 46.288 132.348 46.048C132.572 45.616 133.196 45.4 134.22 45.4C134.988 45.4 135.532 45.536 135.852 45.808C136.124 46.032 136.268 46.384 136.284 46.864C136.3 47.008 136.308 47.232 136.308 47.536V55.144C136.596 54.904 137.028 54.496 137.604 53.92C138.196 53.344 138.636 52.936 138.924 52.696L139.212 52.504C139.772 52.072 140.252 51.856 140.652 51.856C141.052 51.856 141.508 52.184 142.02 52.84C142.548 53.48 142.812 53.984 142.812 54.352C142.812 54.72 142.516 55.152 141.924 55.648L139.548 57.664ZM156.441 56.176C156.441 57.152 156.193 57.88 155.697 58.36C155.217 58.824 154.681 59.056 154.089 59.056H148.401C148.401 59.504 148.665 59.88 149.193 60.184C149.721 60.488 150.249 60.64 150.777 60.64C151.705 60.64 152.433 60.544 152.961 60.352L153.225 60.256C153.609 60.08 153.929 59.992 154.185 59.992C154.697 59.992 155.137 60.352 155.505 61.072C155.713 61.504 155.817 61.872 155.817 62.176C155.817 63.6 154.113 64.312 150.705 64.312C149.521 64.312 148.465 64.112 147.537 63.712C146.625 63.296 145.913 62.752 145.401 62.08C144.393 60.784 143.889 59.336 143.889 57.736C143.889 55.72 144.537 54.112 145.833 52.912C147.145 51.696 148.777 51.088 150.729 51.088C152.953 51.088 154.585 51.872 155.625 53.44C156.169 54.272 156.441 55.184 156.441 56.176ZM151.377 56.872C151.985 56.872 152.289 56.616 152.289 56.104C152.289 55.736 152.145 55.44 151.857 55.216C151.585 54.992 151.185 54.88 150.657 54.88C150.145 54.88 149.633 55.096 149.121 55.528C148.609 55.944 148.353 56.392 148.353 56.872H151.377ZM165.117 55.6L163.557 55.504V58.816C163.557 59.248 163.621 59.56 163.749 59.752C163.893 59.944 164.149 60.04 164.517 60.04C164.901 60.04 165.189 60.056 165.381 60.088C165.589 60.104 165.805 60.176 166.029 60.304C166.397 60.512 166.581 61.048 166.581 61.912C166.581 62.92 166.357 63.536 165.909 63.76C165.669 63.872 165.453 63.944 165.261 63.976C165.085 63.992 164.821 64 164.469 64C162.805 64 161.541 63.624 160.677 62.872C159.813 62.12 159.381 60.848 159.381 59.056V55.504C159.077 55.552 158.749 55.576 158.396 55.576C158.045 55.576 157.749 55.44 157.509 55.168C157.285 54.896 157.173 54.432 157.173 53.776C157.173 53.12 157.213 52.648 157.293 52.36C157.373 52.056 157.485 51.84 157.629 51.712C157.885 51.504 158.205 51.4 158.589 51.4L159.381 51.496V49.024C159.381 48.656 159.389 48.384 159.405 48.208C159.437 48.032 159.517 47.84 159.645 47.632C159.853 47.232 160.469 47.032 161.493 47.032C162.581 47.032 163.229 47.328 163.437 47.92C163.517 48.176 163.557 48.584 163.557 49.144V51.496C164.261 51.432 164.789 51.4 165.141 51.4C165.509 51.4 165.781 51.416 165.957 51.448C166.149 51.464 166.365 51.536 166.605 51.664C167.021 51.872 167.229 52.488 167.229 53.512C167.229 54.52 167.013 55.136 166.581 55.36C166.341 55.472 166.125 55.544 165.933 55.576C165.757 55.592 165.485 55.6 165.117 55.6Z" fill="white"/>
</svg>
